# xmcd
# 
# Track frame offsets:
#     150
#     18155
#     44660
#     60475
#     80203
#     106383
#     122403
#     140658
#     169028
#     182398
#     209655
# 
# Disc length: 3131
# 
# Revision: 9
# Processed by: cddbd v1.5.2PL0 Copyright (c) Steve Scherf et al.
# Submitted via: BonkEnc v1.0.8
# 
DISCID=970c390b
DTITLE=London Symphony Orchestra / Symphonic Music Of TheRolling Stones
DYEAR=1994
DGENRE=Rock/Classic
TTITLE0=Street Fighting Man
TTITLE1=Paint It Black (with Hossam Ramzy)
TTITLE2=Under My Thumb (with Michael Hutchence)
TTITLE3=As Tears Go By (with Maire Brennan)
TTITLE4=Sympathy For The Devil (with Jerry Hadley)
TTITLE5=Dandelion
TTITLE6=Ruby Tuesday (with Marianne Faithfull)
TTITLE7=Angie (with Mick Jagger)
TTITLE8=She's A Rainbow
TTITLE9=Gimme Shelter
TTITLE10=Jumpin' Jack Flash
EXTD=
EXTT0=
EXTT1=
EXTT2=
EXTT3=
EXTT4=
EXTT5=
EXTT6=
EXTT7=
EXTT8=
EXTT9=
EXTT10=
PLAYORDER=
.
